<svg xmlns="http://www.w3.org/2000/svg" viewBox="0 0 32 32" fill="currentColor"><defs></defs><path class="cls-2" d="m23.0022,11.0323l-15.0022-.0323,6.9985,5-6.9956,5h14.9971c.5523,0,1-.4477,1-1v-7.9677c0-.5514-.4464-.9988-.9978-1Z" style="stroke-width: 0px"/><path class="cls-2" d="m21,30h-10c-4.9626,0-9-4.0374-9-9v-10C2,6.0374,6.0374,2,11,2h10c4.9626,0,9,4.0374,9,9v10c0,4.9626-4.0374,9-9,9ZM11,4c-3.8599,0-7,3.1401-7,7v10c0,3.8599,3.1401,7,7,7h10c3.8599,0,7-3.1401,7-7v-10c0-3.8599-3.1401-7-7-7h-10Z" style="stroke-width: 0px"/><rect id="_Transparent_Rectangle_" data-name="&amp;lt;Transparent Rectangle&amp;gt;" class="cls-1" width="32" height="32" style="fill: none;stroke-width: 0px"/></svg>