<svg xmlns="http://www.w3.org/2000/svg" data-name="Layer 1" viewBox="0 0 32 32" fill="currentColor"><defs></defs><title>add--filled</title><path d="M16,2A14.1725,14.1725,0,0,0,2,16,14.1725,14.1725,0,0,0,16,30,14.1725,14.1725,0,0,0,30,16,14.1725,14.1725,0,0,0,16,2Zm8,15H17v7H15V17H8V15h7V8h2v7h7Z" transform="translate(0 0)"/><polygon id="inner-path" class="cls-1" points="24 17 17 17 17 24 15 24 15 17 8 17 8 15 15 15 15 8 17 8 17 15 24 15 24 17" style="fill: #fff;fill-opacity: 0"/><rect id="_Transparent_Rectangle_" data-name="&lt;Transparent Rectangle&gt;" class="cls-2" width="32" height="32" style="fill: none"/></svg>