<svg xmlns="http://www.w3.org/2000/svg" viewBox="0 0 32 32" fill="currentColor"><defs></defs><rect class="cls-2" x="2" y="3" width="28" height="2" style="stroke-width: 0px"/><path class="cls-2" d="m13,21H5c-1.1028,0-2-.8972-2-2v-6c0-1.1028.8972-2,2-2h8c1.1028,0,2,.8972,2,2v6c0,1.1028-.8972,2-2,2ZM5,13v6h8v-6H5Z" style="stroke-width: 0px"/><path class="cls-2" d="m27,21h-8c-1.1028,0-2-.8972-2-2v-6c0-1.1028.8972-2,2-2h8c1.1028,0,2,.8972,2,2v6c0,1.1028-.8972,2-2,2Zm-8-8v6h8v-6h-8Z" style="stroke-width: 0px"/><rect class="cls-2" x="2" y="27" width="28" height="2" style="stroke-width: 0px"/><rect id="_Transparent_Rectangle_" data-name="&amp;lt;Transparent Rectangle&amp;gt;" class="cls-1" width="32" height="32" style="fill: none;stroke-width: 0px"/></svg>