<svg xmlns="http://www.w3.org/2000/svg" viewBox="0 0 32 32" fill="currentColor"><defs></defs><rect class="cls-2" x="27" y="2" width="2" height="28" style="stroke-width: 0px"/><path class="cls-2" d="m20,15h-8c-1.1028,0-2-.8972-2-2v-6c0-1.1028.8972-2,2-2h8c1.1028,0,2,.8972,2,2v6c0,1.1028-.8972,2-2,2ZM12,7v6h8v-6h-8Z" style="stroke-width: 0px"/><path class="cls-2" d="m12,17h8c1.1028,0,2,.8972,2,2v6c0,1.1028-.8972,2-2,2h-8c-1.1028,0-2-.8972-2-2v-6c0-1.1028.8972-2,2-2Zm8,8v-6h-8v6h8Z" style="stroke-width: 0px"/><rect class="cls-2" x="3" y="2" width="2" height="28" style="stroke-width: 0px"/><rect id="_Transparent_Rectangle_" data-name="&amp;lt;Transparent Rectangle&amp;gt;" class="cls-1" width="32" height="32" style="fill: none;stroke-width: 0px"/></svg>