<svg xmlns="http://www.w3.org/2000/svg" viewBox="0 0 32 32" fill="currentColor"><defs/><title>battery--low</title><path class="cls-1" d="M24,24H6a2.0023,2.0023,0,0,1-2-2V10A2.002,2.002,0,0,1,6,8H24a2.0023,2.0023,0,0,1,2,2v1h1a2.0023,2.0023,0,0,1,2,2v6a2.0027,2.0027,0,0,1-2,2H26v1A2.0027,2.0027,0,0,1,24,24ZM6,10V22H24V19h3V13H24V10Z" style="fill:currentColor"/><rect class="cls-1" x="5" y="15" width="8" height="2" transform="translate(25 7) rotate(90)" style="fill:currentColor"/><rect id="_Transparent_Rectangle_" data-name="&lt;Transparent Rectangle&gt;" class="cls-2" width="32" height="32" style="fill:none"/></svg>