<svg xmlns="http://www.w3.org/2000/svg" viewBox="0 0 32 32" fill="currentColor"><defs></defs><path class="cls-2" d="m28,4H4c-1.1045,0-2,.8955-2,2v20c0,1.1045.8955,2,2,2h24c1.1045,0,2-.8955,2-2V6c0-1.1045-.8955-2-2-2Zm0,16v6H4v-6h24Zm0-14v12H4V6h11v6.1699s-3.5898-3.5801-3.5898-3.5801l-1.4102,1.4102,6,6,6-6-1.4102-1.4102-3.5898,3.5801v-6.1699h11Z" style="stroke-width: 0px"/><rect id="_Transparent_Rectangle_" data-name="&amp;lt;Transparent Rectangle&amp;gt;" class="cls-1" width="32" height="32" style="fill: none;stroke-width: 0px"/></svg>