<svg xmlns="http://www.w3.org/2000/svg" viewBox="0 0 32 32" fill="currentColor"><defs></defs><path class="cls-2" d="m30,23h-10c-1.1028,0-2-.8972-2-2v-10c0-1.1028.8972-2,2-2h10c1.1028,0,2,.8972,2,2v10c0,1.1028-.8972,2-2,2Zm-10-12v10h10v-10h-10Z" style="stroke-width: 0px"/><polygon class="cls-2" points="9 5 14 10 9 15 7.581 13.591 10.153 11 0 11 0 9 10.206 9 7.581 6.409 9 5" style="stroke-width: 0px"/><polygon class="cls-2" points="5 27 0 22 5 17 6.419 18.409 3.847 21 14 21 14 23 3.794 23 6.419 25.591 5 27" style="stroke-width: 0px"/><rect id="_Transparent_Rectangle_" data-name="&amp;lt;Transparent Rectangle&amp;gt;" class="cls-1" width="32" height="32" style="fill: none;stroke-width: 0px"/></svg>