<svg xmlns="http://www.w3.org/2000/svg" viewBox="0 0 32 32" fill="currentColor"><defs/><title>drop-photo--filled</title><circle class="cls-1" cx="19" cy="22" r="2" style="fill:currentColor"/><path class="cls-1" d="M27,16H23.7207l-.5439-1.6328A1.9983,1.9983,0,0,0,21.2793,13H16.7207a1.9981,1.9981,0,0,0-1.8975,1.3677L14.2793,16H11a2.0023,2.0023,0,0,0-2,2v9a2.0023,2.0023,0,0,0,2,2H27a2.0023,2.0023,0,0,0,2-2V18A2.0023,2.0023,0,0,0,27,16ZM19,26a4,4,0,1,1,4-4A4.0045,4.0045,0,0,1,19,26Z" style="fill:currentColor"/><path id="inner-path" class="cls-2" d="M19,26a4,4,0,1,1,4-4A4.0045,4.0045,0,0,1,19,26Zm0-6a2,2,0,1,0,2,2A2.0021,2.0021,0,0,0,19,20Z" style="fill:none"/><rect class="cls-1" x="27" y="11" width="2" height="2" style="fill:currentColor"/><rect class="cls-1" x="27" y="7" width="2" height="2" style="fill:currentColor"/><rect class="cls-1" x="27" y="3" width="2" height="2" style="fill:currentColor"/><rect class="cls-1" x="23" y="3" width="2" height="2" style="fill:currentColor"/><rect class="cls-1" x="19" y="3" width="2" height="2" style="fill:currentColor"/><rect class="cls-1" x="15" y="3" width="2" height="2" style="fill:currentColor"/><rect class="cls-1" x="11" y="3" width="2" height="2" style="fill:currentColor"/><rect class="cls-1" x="7" y="3" width="2" height="2" style="fill:currentColor"/><rect class="cls-1" x="3" y="3" width="2" height="2" style="fill:currentColor"/><rect class="cls-1" x="3" y="7" width="2" height="2" style="fill:currentColor"/><rect class="cls-1" x="3" y="11" width="2" height="2" style="fill:currentColor"/><rect class="cls-1" x="3" y="15" width="2" height="2" style="fill:currentColor"/><rect class="cls-1" x="3" y="19" width="2" height="2" style="fill:currentColor"/><rect class="cls-1" x="3" y="23" width="2" height="2" style="fill:currentColor"/><rect class="cls-1" x="3" y="27" width="2" height="2" style="fill:currentColor"/><rect id="_Transparent_Rectangle_" data-name="&lt;Transparent Rectangle&gt;" class="cls-2" width="32" height="32" style="fill:none"/></svg>