<svg xmlns="http://www.w3.org/2000/svg" data-name="Layer 1" viewBox="0 0 32 32" fill="currentColor"><defs></defs><path class="cls-1" d="M26,6a2,2,0,0,0-2-2H8A2,2,0,0,0,6,6V26a2,2,0,0,0,2,2h8V26H8V6H24v6h2Z" transform="translate(0 0)" style="fill-rule: evenodd"/><rect x="10" y="18" width="6" height="2"/><rect x="10" y="14" width="12" height="2"/><path class="cls-1" d="M22,10v2H10V10Z" transform="translate(0 0)" style="fill-rule: evenodd"/><path class="cls-1" d="M25,23l5,2V23l-5-2.5V18a1,1,0,0,0-2,0v2.5L18,23v2l5-2v3.5L21,28v1l3-1,3,1V28l-2-1.5Z" transform="translate(0 0)" style="fill-rule: evenodd"/><rect id="_Transparent_Rectangle_" data-name="&lt;Transparent Rectangle&gt;" class="cls-2" width="32" height="32" style="fill: none"/></svg>