<svg xmlns="http://www.w3.org/2000/svg" viewBox="0 0 32 32" fill="currentColor"><defs></defs><path class="cls-2" d="m4,10h4c1.1046,0,2-.8954,2-2v-4c0-1.1046-.8954-2-2-2h-4c-1.1046,0-2,.8954-2,2v4c0,1.1046.8954,2,2,2Zm0-6h4v4h-4v-4Z" style="stroke-width: 0px"/><path class="cls-2" d="m28,22h-4c-1.1046,0-2,.8954-2,2v4c0,1.1046.8954,2,2,2h4c1.1046,0,2-.8954,2-2v-4c0-1.1046-.8954-2-2-2Zm0,6h-4v-4h4v4Z" style="stroke-width: 0px"/><path class="cls-2" d="m21.414,12.586l-1.414,1.414,6,6,6-6-1.414-1.414-3.586,3.586V7c0-1.1046-.8954-2-2-2h-13v2h13v9.172l-3.586-3.586Z" style="stroke-width: 0px"/><path class="cls-2" d="m7,15.828l3.586,3.586,1.414-1.414-6-6L0,18l1.414,1.414,3.586-3.586v9.172c0,1.1046.8954,2,2,2h13v-2H7v-9.172Z" style="stroke-width: 0px"/><rect id="_Transparent_Rectangle_" data-name="&amp;lt;Transparent Rectangle&amp;gt;" class="cls-1" width="32" height="32" style="fill: none;stroke-width: 0px"/></svg>