<svg xmlns="http://www.w3.org/2000/svg" viewBox="0 0 32 32" fill="currentColor"><defs></defs><path d="M16,2A14,14,0,1,0,30,16,14,14,0,0,0,16,2ZM8,18a2,2,0,1,1,2-2A2,2,0,0,1,8,18Zm8,0a2,2,0,1,1,2-2A2,2,0,0,1,16,18Zm8,0a2,2,0,1,1,2-2A2,2,0,0,1,24,18Z" transform="translate(0 0)"/><circle id="_inner-path_" data-name="&lt;inner-path&gt;" fill=" none" cx="8" cy="16" r="2"/><circle id="_inner-path_2" data-name="&lt;inner-path&gt;" fill=" none" cx="16" cy="16" r="2"/><circle id="_inner-path_3" data-name="&lt;inner-path&gt;" fill=" none" cx="24" cy="16" r="2"/><rect data-name="&lt;Transparent Rectangle&gt;" fill=" none" /></svg>
